PathFileType	4	(X/Y/Z)	C:\Users\°ÂÌØÂü\Desktop\20210112\bx_y_10_1802-Unnamed.trc
DataRate	CameraRate	NumFrames	NumMarkers	Units	OrigDataRate	OrigDataStartFrame	OrigNumFrames
50.00	50.00	       5	0	mm	50.00	571	       652
Frame#	Time	
		

571	11.400	-774.09369	250.64339	505.60364	-603.33093	-24.70547	1050.15112	-712.33081	151.89778	216.56407	-730.15277	240.49957	580.14813	-714.70862	-32.91985	615.97388	-681.45868	11.73933	523.21246	-663.81689	-78.70145	869.03156	-705.09283	-67.36819	1571.54712	-676.00891	51.69242	161.89607	-517.87897	-72.53084	142.67836	-667.45831	-70.17830	159.65192	-679.48804	197.55554	535.91290	-625.73346	-81.01130	157.55450	-882.62158	296.14899	144.58987	-730.60834	-30.01230	569.50946	-604.37585	16.36518	169.44859	-562.76764	-41.07923	164.08665	-594.87195	222.40344	173.37141	-667.02594	298.45691	160.35855	-629.84644	306.42874	162.28638	-560.62201	261.32614	164.77187	-528.21149	304.33224	146.49052	-695.25391	107.56650	1857.21094	-697.97034	286.34995	1543.16687	-622.39929	272.36118	876.13531	-591.16028	201.19289	812.08600	-796.60632	172.00388	184.20313	-772.09558	221.14513	204.91170	-604.10901	-13.82312	802.44891	-771.49481	-6.19934	206.15761	-794.40637	55.88909	175.54950	-703.98096	75.91663	582.25836	-780.63507	-36.80470	490.73505	-876.05151	-78.64049	141.43311	-676.12592	172.79956	156.59447	-688.44794	269.07651	749.36951	-725.80219	245.73442	640.34448	-695.18945	137.08839	579.72876				-577.79199	203.89052	1064.36365	-713.38196	-58.39386	719.24420	-793.51495	100.95623	1048.65881	-605.73138	97.92635	1445.99573	-717.85248	73.44798	218.93921	
572	11.420	-774.20691	250.67168	505.67746	-603.26282	-24.49707	1050.17529	-712.42969	152.03543	216.51012	-730.20361	240.96082	580.27722	-714.65448	-32.98452	616.12036	-681.32697	11.99623	523.43207	-663.81689	-78.70145	869.03156	-704.74957	-66.73787	1571.44189	-675.84192	51.88428	161.99171	-518.07397	-72.30225	142.57486	-667.47144	-70.17955	159.74168	-679.04407	197.91698	536.10791	-625.73950	-81.16368	157.63901	-882.74310	296.04388	144.52455	-730.46637	-29.85664	569.42023	-604.41309	16.54903	169.31126	-562.80902	-41.19278	164.02956	-594.79669	222.53394	173.42091	-666.89734	298.58548	160.56477	-629.95343	306.51239	162.11035	-560.46478	261.14996	164.76744	-528.17456	304.49185	146.35701	-694.77618	108.14178	1857.27612	-697.73413	287.03818	1542.96350	-621.92139	272.49976	876.29816	-591.10760	201.36491	811.88818	-796.65381	172.10786	184.23904	-772.16022	221.27441	205.11824	-604.04034	-13.71990	802.56891	-771.39539	-6.22760	206.33864	-794.51019	56.21136	175.49498	-703.98096	75.91663	582.25836	-780.65698	-36.72333	490.80316	-876.03320	-78.59757	141.50241	-675.94165	172.66908	157.04433	-688.54260	269.38333	749.23212	-725.71802	245.85760	640.34900	-695.12549	137.23668	579.80286				-577.52478	203.91562	1064.17712	-713.25122	-58.18569	719.24817	-793.30322	101.09868	1048.65710	-605.47186	98.09551	1446.25012	-717.67035	73.68723	219.08720	
573	11.440	-774.04376	250.72906	505.25821	-603.32416	-24.36560	1050.02979	-712.42969	152.03543	216.51012	-730.13666	240.85838	580.31238	-714.77429	-32.84930	615.98120	-681.17603	11.96425	523.45032	-663.92969	-78.49711	869.03809	-704.52319	-66.48505	1571.42590	-676.00891	51.69242	161.89607	-517.89148	-72.43768	142.77414	-667.46204	-70.17248	159.65448	-678.84937	198.03197	535.98816	-625.74652	-81.10561	157.68071	-882.63263	296.08612	144.57532	-730.50317	-29.64611	569.40955	-604.39667	16.48576	169.15018	-562.66046	-41.21088	164.02696	-594.86798	222.58435	173.48032	-666.77429	298.54205	160.51785	-629.95795	306.57489	162.03107	-560.61969	261.21960	164.55521	-528.25574	304.64194	146.38336	-694.44434	108.56417	1857.08350	-697.60931	287.56339	1542.82007	-622.07324	272.68738	875.96057	-590.99945	201.42123	812.00421	-796.46381	172.03612	184.16402	-772.13306	221.19565	204.91731	-603.93146	-13.41258	802.88306	-771.39539	-6.22760	206.33864	-794.57349	55.98583	175.56584	-703.98096	75.91663	582.25836	-780.69257	-36.52480	490.74551	-876.03320	-78.59757	141.50241	-675.71759	172.77635	156.98454	-688.37488	269.26938	748.99561	-725.79633	246.03703	640.20001	-695.01776	137.35159	579.72693				-577.37000	204.37299	1064.44812	-713.19336	-57.84756	719.24512	-793.32281	101.34902	1048.62720	-605.54205	98.30994	1446.20679	-717.85248	73.44798	218.93921	
574	11.460	-774.03033	251.03192	505.51492	-602.87781	-24.06396	1050.27441	-712.33612	152.00500	216.60483	-730.23077	241.12518	580.08484	-714.56964	-32.75813	616.28632	-681.21552	12.06304	523.30042	-663.83386	-77.78476	868.87836	-704.25476	-66.02261	1571.46863	-675.89868	51.82588	161.68877	-518.02954	-72.39854	142.76881	-667.47144	-70.17955	159.74168	-678.80115	198.20041	536.00708	-625.77673	-81.09821	157.69435	-882.61108	296.08881	144.60971	-730.54559	-29.63502	569.53296	-604.39087	16.44226	169.27058	-562.65027	-41.11172	164.05612	-594.79669	222.53394	173.42091	-666.98962	298.35587	160.16936	-629.97736	306.46558	162.18846	-560.64294	261.24625	164.87651	-528.05817	304.30383	146.49913	-694.15338	109.13462	1857.17456	-697.46985	287.90356	1542.82825	-622.03168	272.82776	875.86859	-591.09760	201.57782	812.03906	-796.55408	172.10222	184.16913	-772.03333	221.20578	204.95886	-603.80743	-13.13178	802.93518	-771.39539	-6.22760	206.33864	-794.47070	56.02887	175.40782	-703.98212	76.19374	582.14160	-779.59656	-34.61856	491.10690	-876.13251	-78.56548	141.43300	-675.94165	172.66908	157.04433	-687.99017	269.43219	748.75024	-725.82489	246.23161	640.30597	-695.51868	137.84422	579.37793				-577.28864	204.57555	1064.26270	-713.16412	-57.67147	719.19672	-793.12427	101.52766	1048.62024	-605.02222	98.58468	1446.32227	-717.54437	73.51275	219.08961	
575	11.480	-774.14008	251.31340	505.27847	-602.87781	-24.06396	1050.27441	-712.26733	151.79163	216.81296	-730.23077	241.12518	580.08484	-714.73730	-32.46603	616.20001	-681.09753	12.08279	523.59937	-663.97040	-77.32315	868.60236	-704.14850	-65.63973	1571.64600	-675.73175	52.01773	161.78441	-517.92694	-72.55348	142.74742	-667.47144	-70.17955	159.74168	-678.83539	198.43332	536.06964	-625.73151	-81.13963	157.66542	-882.74310	296.04388	144.52455	-730.43909	-29.36474	569.43628	-604.37207	16.61442	169.21660	-562.60602	-41.08961	164.05875	-594.87195	222.40344	173.37141	-667.04077	298.52597	160.30145	-629.86719	306.34155	162.14320	-560.67987	261.37143	164.76164	-528.17456	304.49185	146.35701	-693.79321	109.53193	1857.04944	-697.42676	288.30005	1542.62463	-621.95081	272.77811	876.05811	-590.71625	202.11923	812.30859	-796.69659	172.06999	184.20824	-772.04150	221.23662	204.94908	-603.68115	-13.07886	802.97162	-771.42932	-6.23542	206.26201	-794.61420	55.98787	175.49081	-703.64374	76.48846	581.72345	-779.55756	-34.21933	491.03387	-876.03320	-78.59757	141.50241	-675.97815	172.90858	156.64433	-687.99017	269.43219	748.75024	-725.83856	245.92511	639.98645	-695.33502	137.63612	579.48798				-577.15875	205.06503	1064.33533	-712.94141	-57.25940	719.02020	-792.85858	101.73178	1048.61499	-604.90955	98.84196	1446.24414	-717.78253	73.55618	218.97392	
